# xmcd
#
# Track frame offsets:
#	182
#	30652
#	63392
#	90710
#	114767
#	140932
#	175150
#	203042
#	223147
#
# Disc length: 3354 seconds
#
# Revision: 1
# Processed by: cddbd v1.5.2PL0 Copyright (c) Steve Scherf et al.
# Submitted via: EasyCDDAExtractor 2011.3.0.0
#
DISCID=810d1809
DTITLE=盘琴 - 盘王之女
DYEAR=1900
DGENRE=Ethnic
TTITLE0=盘王之女
TTITLE1=过山谣
TTITLE2=赶歌堂
TTITLE3=生在云端
TTITLE4=蝴蝶歌
TTITLE5=祖先的故事
TTITLE6=枯滴
TTITLE7=礼曲
TTITLE8=心愿
EXTD=
EXTT0=
EXTT1=
EXTT2=
EXTT3=
EXTT4=
EXTT5=
EXTT6=
EXTT7=
EXTT8=
PLAYORDER=
